<?xml version="1.0" standalone="no"?>
<!DOCTYPE svg PUBLIC "-//W3C//DTD SVG 20010904//EN"
 "http://www.w3.org/TR/2001/REC-SVG-20010904/DTD/svg10.dtd">
<svg version="1.0" xmlns="http://www.w3.org/2000/svg"
 width="512.000000pt" height="512.000000pt" viewBox="0 0 512.000000 512.000000"
 preserveAspectRatio="xMidYMid meet">
<metadata>
Created by potrace 1.14, written by Peter Selinger 2001-2017
</metadata>
<g transform="translate(0.000000,512.000000) scale(0.100000,-0.100000)"
fill="#000000" stroke="none">
<path d="M2355 5110 c-788 -70 -1482 -479 -1920 -1130 -253 -377 -394 -792
-427 -1258 -31 -426 53 -862 243 -1262 127 -265 283 -484 499 -701 210 -210
389 -343 635 -470 724 -376 1577 -385 2304 -23 246 122 444 261 637 447 223
214 396 450 529 722 116 237 188 457 229 705 133 799 -120 1607 -689 2199
-393 409 -934 682 -1499 756 -149 19 -410 26 -541 15z m460 -1341 c342 -35
708 -174 1003 -380 175 -123 375 -313 387 -369 15 -70 -21 -134 -90 -160 -58
-22 -91 -5 -199 98 -513 493 -1197 671 -1871 487 -313 -85 -585 -242 -835
-481 -114 -109 -144 -124 -203 -105 -79 26 -117 112 -82 184 9 20 54 71 98
114 496 474 1105 682 1792 612z m-143 -639 c283 -23 521 -106 751 -260 117
-78 298 -243 317 -290 39 -94 -48 -203 -146 -184 -27 5 -64 33 -149 113 -226
212 -464 321 -771 353 -265 27 -561 -44 -800 -193 -47 -30 -137 -102 -199
-160 -85 -80 -122 -108 -149 -113 -98 -19 -185 90 -146 184 19 47 200 212 317
290 223 149 475 238 736 260 51 4 99 8 107 8 8 1 68 -3 132 -8z m-2 -651 c108
-13 244 -58 339 -112 80 -45 242 -191 268 -240 34 -67 -1 -152 -75 -184 -58
-24 -94 -9 -181 76 -144 142 -271 196 -461 196 -91 0 -130 -5 -185 -22 -99
-32 -189 -87 -267 -166 -82 -82 -122 -102 -176 -87 -81 21 -125 116 -89 187
26 49 188 195 268 240 125 71 290 117 434 122 22 0 79 -4 125 -10z m10 -675
c82 -45 130 -127 130 -223 0 -89 -71 -191 -156 -227 -43 -18 -145 -18 -188 0
-85 36 -156 138 -156 227 0 195 199 316 370 223z"/>
</g>
</svg>
